<mxfile host="app.diagrams.net" modified="2020-08-04T20:52:57.158Z" agent="5.0 (Windows NT 10.0; Win64; x64) AppleWebKit/537.36 (KHTML, like Gecko) Chrome/84.0.4147.105 Safari/537.36" etag="WoJIdlPDsR1L7VqFWBap" version="13.5.8" type="github">
  <diagram id="xWglTDFckjAgYGoPjg47" name="Page-1">
    <mxGraphModel dx="1038" dy="580" grid="1" gridSize="10" guides="1" tooltips="1" connect="1" arrows="1" fold="1" page="1" pageScale="1" pageWidth="850" pageHeight="1100" math="0" shadow="0">
      <root>
        <mxCell id="0" />
        <mxCell id="1" parent="0" />
        <mxCell id="arhzFwlKo96cz5EWzgSA-7" value="" style="edgeStyle=orthogonalEdgeStyle;rounded=0;orthogonalLoop=1;jettySize=auto;html=1;" parent="1" source="arhzFwlKo96cz5EWzgSA-1" target="arhzFwlKo96cz5EWzgSA-4" edge="1">
          <mxGeometry relative="1" as="geometry" />
        </mxCell>
        <mxCell id="arhzFwlKo96cz5EWzgSA-1" value="Moodipy User" style="shape=umlActor;verticalLabelPosition=bottom;labelBackgroundColor=#ffffff;verticalAlign=top;html=1;outlineConnect=0;" parent="1" vertex="1">
          <mxGeometry x="160" y="190" width="30" height="60" as="geometry" />
        </mxCell>
        <mxCell id="arhzFwlKo96cz5EWzgSA-11" value="" style="edgeStyle=orthogonalEdgeStyle;rounded=0;orthogonalLoop=1;jettySize=auto;html=1;" parent="1" source="arhzFwlKo96cz5EWzgSA-4" edge="1">
          <mxGeometry relative="1" as="geometry">
            <mxPoint x="420" y="220" as="targetPoint" />
          </mxGeometry>
        </mxCell>
        <mxCell id="arhzFwlKo96cz5EWzgSA-4" value="Click on View/Help button" style="ellipse;whiteSpace=wrap;html=1;" parent="1" vertex="1">
          <mxGeometry x="250" y="187.5" width="90" height="65" as="geometry" />
        </mxCell>
        <mxCell id="arhzFwlKo96cz5EWzgSA-12" value="GUI" style="shape=umlActor;verticalLabelPosition=bottom;labelBackgroundColor=#ffffff;verticalAlign=top;html=1;outlineConnect=0;" parent="1" vertex="1">
          <mxGeometry x="420" y="187.5" width="30" height="60" as="geometry" />
        </mxCell>
      </root>
    </mxGraphModel>
  </diagram>
</mxfile>
